name ./resultDataOpenSim/trcMotMarkerGrf/sub10/grf-14-05.mot
datacolumns 19
datarows 27
range 0.97200000 1.07600000
endheader

                time	     ground_force_vx	     ground_force_vy	     ground_force_vz	     ground_force_px	     ground_force_py	     ground_force_pz	   l_ground_force_vx	   l_ground_force_vy	   l_ground_force_vz	   l_ground_force_px	   l_ground_force_py	   l_ground_force_pz	     ground_torque_x	     ground_torque_y	     ground_torque_z	   l_ground_torque_x	   l_ground_torque_y	   l_ground_torque_z	
          0.97200000	          0.00000000	          0.00000000	          0.00000000	          0.00000000	          0.00000000	          0.00000000	         63.43284704	        903.25185919	         26.11140287	         -0.07705843	         -0.07500400	         -0.07666811	          0.00000000	          0.00000000	          0.00000000	          0.00000000	         -2.93464921	          0.00000000	
          0.97600000	          0.00000000	          0.00000000	          0.00000000	          0.00000000	          0.00000000	          0.00000000	         73.48930891	        912.87884431	         25.49110774	         -0.07714218	         -0.07500400	         -0.07646533	          0.00000000	          0.00000000	          0.00000000	          0.00000000	         -3.01138195	          0.00000000	
          0.98000000	          0.00000000	          0.00000000	          0.00000000	          0.00000000	          0.00000000	          0.00000000	         83.91787345	        921.30373523	         24.50529873	         -0.07722201	         -0.07500383	         -0.07623824	          0.00000000	          0.00000000	          0.00000000	          0.00000000	         -3.07283578	          0.00000000	
          0.98400000	          0.00000000	          0.00000000	          0.00000000	          0.00000000	          0.00000000	          0.00000000	         94.60662898	        928.44572056	         23.18296186	         -0.07728307	         -0.07500314	         -0.07598402	          0.00000000	          0.00000000	          0.00000000	          0.00000000	         -3.11595859	          0.00000000	
          0.98800000	          0.00000000	          0.00000000	          0.00000000	          0.00000000	          0.00000000	          0.00000000	        105.36795531	        934.21357322	         21.55169084	         -0.07731338	         -0.07500300	         -0.07570804	          0.00000000	          0.00000000	          0.00000000	          0.00000000	         -3.13950543	          0.00000000	
          0.99200000	          0.00000000	          0.00000000	          0.00000000	          0.00000000	          0.00000000	          0.00000000	        115.96266728	        938.48119653	         19.64467099	         -0.07728978	         -0.07500300	         -0.07540830	          0.00000000	          0.00000000	          0.00000000	          0.00000000	         -3.14431760	          0.00000000	
          0.99600000	          0.00000000	          0.00000000	          0.00000000	          0.00000000	          0.00000000	          0.00000000	        126.16397970	        941.08940324	         17.49956649	         -0.07717198	         -0.07500296	         -0.07507055	          0.00000000	          0.00000000	          0.00000000	          0.00000000	         -3.13293798	          0.00000000	
          1.00000000	          0.00000000	          0.00000000	          0.00000000	          0.00000000	          0.00000000	          0.00000000	        135.83543154	        941.86937235	         15.14487118	         -0.07692284	         -0.07500200	         -0.07467494	          0.00000000	          0.00000000	          0.00000000	          0.00000000	         -3.10861576	          0.00000000	
          1.00400000	          0.00000000	          0.00000000	          0.00000000	          0.00000000	          0.00000000	          0.00000000	        144.97935880	        940.61893317	         12.59440030	         -0.07653115	         -0.07500200	         -0.07421164	          0.00000000	          0.00000000	          0.00000000	          0.00000000	         -3.07408812	          0.00000000	
          1.00800000	          0.00000000	          0.00000000	          0.00000000	          0.00000000	          0.00000000	          0.00000000	        153.71882460	        937.06454065	          9.86319972	         -0.07604165	         -0.07500200	         -0.07370746	          0.00000000	          0.00000000	          0.00000000	          0.00000000	         -3.03067560	          0.00000000	
          1.01200000	          0.00000000	          0.00000000	          0.00000000	          0.00000000	          0.00000000	          0.00000000	        162.22912629	        930.89910061	          6.98946654	         -0.07550677	         -0.07500112	         -0.07319346	          0.00000000	          0.00000000	          0.00000000	          0.00000000	         -2.97804976	          0.00000000	
          1.01600000	          0.00000000	          0.00000000	          0.00000000	          0.00000000	          0.00000000	          0.00000000	        170.64926271	        921.90878269	          4.04087376	         -0.07496507	         -0.07500016	         -0.07268543	          0.00000000	          0.00000000	          0.00000000	          0.00000000	         -2.91464369	          0.00000000	
          1.02000000	          0.00000000	          0.00000000	          0.00000000	          0.00000000	          0.00000000	          0.00000000	        178.99660516	        910.09606276	          1.10473186	         -0.07443514	         -0.07499973	         -0.07218811	          0.00000000	          0.00000000	          0.00000000	          0.00000000	         -2.83835619	          0.00000000	
          1.02400000	          0.00000000	          0.00000000	          0.00000000	          0.00000000	          0.00000000	          0.00000000	        187.14596632	        895.67472635	         -1.72378535	         -0.07392968	         -0.07499916	         -0.07171250	          0.00000000	          0.00000000	          0.00000000	          0.00000000	         -2.74718415	          0.00000000	
          1.02800000	          0.00000000	          0.00000000	          0.00000000	          0.00000000	          0.00000000	          0.00000000	        194.89948660	        878.95279290	         -4.35143356	         -0.07346905	         -0.07499828	         -0.07127748	          0.00000000	          0.00000000	          0.00000000	          0.00000000	         -2.63964949	          0.00000000	
          1.03200000	          0.00000000	          0.00000000	          0.00000000	          0.00000000	          0.00000000	          0.00000000	        202.06861812	        860.23423721	         -6.69969633	         -0.07305700	         -0.07499800	         -0.07088543	          0.00000000	          0.00000000	          0.00000000	          0.00000000	         -2.51507397	          0.00000000	
          1.03600000	          0.00000000	          0.00000000	          0.00000000	          0.00000000	          0.00000000	          0.00000000	        208.49508569	        839.76210968	         -8.71715097	         -0.07267862	         -0.07499736	         -0.07052633	          0.00000000	          0.00000000	          0.00000000	          0.00000000	         -2.37375770	          0.00000000	
          1.04000000	          0.00000000	          0.00000000	          0.00000000	          0.00000000	          0.00000000	          0.00000000	        214.03366800	        817.65671797	        -10.38616344	         -0.07231052	         -0.07499690	         -0.07018932	          0.00000000	          0.00000000	          0.00000000	          0.00000000	         -2.21706110	          0.00000000	
          1.04400000	          0.00000000	          0.00000000	          0.00000000	          0.00000000	          0.00000000	          0.00000000	        218.54638040	        793.87136132	        -11.72151718	         -0.07193838	         -0.07499637	         -0.06987349	          0.00000000	          0.00000000	          0.00000000	          0.00000000	         -2.04739353	          0.00000000	
          1.04800000	          0.00000000	          0.00000000	          0.00000000	          0.00000000	          0.00000000	          0.00000000	        221.90749672	        768.20808948	        -12.75755953	         -0.07156660	         -0.07499548	         -0.06958840	          0.00000000	          0.00000000	          0.00000000	          0.00000000	         -1.86813981	          0.00000000	
          1.05200000	          0.00000000	          0.00000000	          0.00000000	          0.00000000	          0.00000000	          0.00000000	        223.99439775	        740.40436093	        -13.52944878	         -0.07120742	         -0.07499500	         -0.06935317	          0.00000000	          0.00000000	          0.00000000	          0.00000000	         -1.68356775	          0.00000000	
          1.05600000	          0.00000000	          0.00000000	          0.00000000	          0.00000000	          0.00000000	          0.00000000	        224.66817882	        710.26627574	        -14.06053365	         -0.07089467	         -0.07499500	         -0.06920150	          0.00000000	          0.00000000	          0.00000000	          0.00000000	         -1.49875441	          0.00000000	
          1.06000000	          0.00000000	          0.00000000	          0.00000000	          0.00000000	          0.00000000	          0.00000000	        223.77687270	        677.77458567	        -14.35992564	         -0.07066660	         -0.07499460	         -0.06915939	          0.00000000	          0.00000000	          0.00000000	          0.00000000	         -1.31949934	          0.00000000	
          1.06400000	          0.00000000	          0.00000000	          0.00000000	          0.00000000	          0.00000000	          0.00000000	        221.19348485	        643.06991273	        -14.42549521	         -0.07051493	         -0.07499364	         -0.06922124	          0.00000000	          0.00000000	          0.00000000	          0.00000000	         -1.15207286	          0.00000000	
          1.06800000	          0.00000000	          0.00000000	          0.00000000	          0.00000000	          0.00000000	          0.00000000	        216.85160087	        606.32862674	        -14.25236501	         -0.07038835	         -0.07499289	         -0.06936427	          0.00000000	          0.00000000	          0.00000000	          0.00000000	         -1.00263983	          0.00000000	
          1.07200000	          0.00000000	          0.00000000	          0.00000000	          0.00000000	          0.00000000	          0.00000000	        210.74412088	        567.67965944	        -13.85126513	         -0.07022944	         -0.07499248	         -0.06956257	          0.00000000	          0.00000000	          0.00000000	          0.00000000	         -0.87638171	          0.00000000	
          1.07600000	          0.00000000	          0.00000000	          0.00000000	          0.00000000	          0.00000000	          0.00000000	        202.90283083	        527.25289836	        -13.26620631	         -0.06999844	         -0.07499176	         -0.06978263	          0.00000000	          0.00000000	          0.00000000	          0.00000000	         -0.77655845	          0.00000000	
